<?xml version="1.0" encoding="utf-8"?>
<!-- Generator: Adobe Illustrator 22.0.1, SVG Export Plug-In . SVG Version: 6.00 Build 0)  -->
<svg version="1.1" id="Layer_1" xmlns="http://www.w3.org/2000/svg" xmlns:xlink="http://www.w3.org/1999/xlink" x="0px" y="0px"
	 viewBox="0 0 1000 1000" style="enable-background:new 0 0 1000 1000;" xml:space="preserve">
<style type="text/css">
	.st0{fill:#FFFFFF;}
	.st1{fill:#FF8300;}
	.st2{fill:#5B2B82;}
	.st3{fill:#BFBE00;}
	.st4{display:none;}
	.st5{display:inline;}
	.st6{fill:none;}
</style>
<g id="Capa_1">
	<g>
		<path class="st0" d="M770.2,229.2C698,157,602,117.4,500,117.4s-198,39.7-270.2,111.9C157.7,301.4,118,397.5,118,499.5
			s39.7,198,111.8,270.1c72.2,72.2,168,111.9,270.2,111.9c102,0,198-39.7,270.2-111.9S882,601.6,882,499.5
			C882,397.4,842.3,301.4,770.2,229.2z"/>
		<path class="st1" d="M814.7,625.5l-93.1-139.4l71.2-105c8.4-12.3,5.1-24.6-5.5-29.1c-10.7-4.4-26-0.2-35.8,11l-63.5,72.9
			l-43.8-65.8c-8.2-12.4-26.4-18.9-40.3-14.4c-13.8,4.4-20.6,19.3-15,33.2L640,492.5l-73.4,83.1c-9.8,11.3-11.2,30.8-3.3,43.3
			l18.4,29.1c8,12.6,21.4,12.8,29.7,0.5l61.7-90.9l50,91.8c5.6,13.8,22,21.8,36.4,17.9l44.2-12.1C818,651.3,823,638,814.7,625.5"/>
		<path class="st2" d="M273.6,358.5c-67.3,0-121.7,65.4-121.7,146c0,80.7,54.5,146.1,121.7,146.1s121.7-65.4,121.7-146.1
			S340.8,358.5,273.6,358.5 M273.6,603.8c-31.3,0-56.7-44.5-56.7-99.3s25.4-99.3,56.7-99.3s56.7,44.4,56.7,99.3
			C330.3,559.3,304.9,603.8,273.6,603.8"/>
		<path class="st3" d="M432.8,319.2c-17.1-0.1-23,14.1-22,28.5v186.6c0.6,17.5,9.2,28.3,28.9,28.5l102.9,0.1
			c16.3,0.4,25.2-3.5,26.6-16.8v-32.3c-0.2-14.9-15.4-14.9-25.8-14.7h-42.2c-16.7-0.1-20.6-2.9-21.4-19.5l0.2-132.6
			c0.4-15.5-5-27.8-22.2-27.9H432.8z"/>
		<g>
			<path d="M500,119c101.8,0,197.5,39.6,269.5,111.6S881,398.2,881,500s-39.6,197.5-111.6,269.5S601.8,881,500,881
				s-197.5-39.6-269.5-111.6S119,601.8,119,500s39.6-197.5,111.6-269.5S398.2,119,500,119 M500,108.1
				c-104.7,0-203.1,40.8-277.2,114.8C148.8,296.9,108,395.3,108,500s40.7,203.1,114.8,277.1c74,74,172.4,114.8,277.2,114.8
				c104.7,0,203.1-40.8,277.2-114.8c74-74,114.8-172.4,114.8-277.1c0-104.8-40.7-203.1-114.8-277.1S604.7,108.1,500,108.1L500,108.1
				z"/>
		</g>
	</g>
</g>
<g id="Capa_2" class="st4">
	<g class="st5">
		<path class="st0" d="M775.7,223.7C702.1,150,604.2,109.5,500,109.5s-202.1,40.6-275.7,114.2S110.1,395.3,110.1,499.4
			s40.5,202,114.2,275.7c73.6,73.6,171.6,114.2,275.7,114.2s202.1-40.6,275.7-114.2c73.6-73.7,114.2-171.5,114.2-275.7
			S849.4,297.3,775.7,223.7z"/>
		<path class="st1" d="M821.2,628.1l-95-142.3L799,378.6c8.6-12.5,5.2-25.1-5.7-29.7c-10.9-4.5-26.6-0.3-36.6,11.2L692,434.5
			l-44.7-67.1c-8.4-12.7-27-19.3-41.1-14.7c-14.1,4.5-21,19.8-15.3,33.9L643,492.3L568.1,577c-10,11.5-11.5,31.4-3.4,44.2l18.7,29.7
			c8.1,12.9,21.8,13.1,30.3,0.5l62.9-92.8l51.1,93.6c5.8,14.1,22.5,22.3,37.1,18.3l45.1-12.3C824.6,654.4,829.7,640.8,821.2,628.1"
			/>
		<path class="st2" d="M268.9,355.5c-68.6,0-124.3,66.7-124.3,149c0,82.4,55.6,149.1,124.3,149.1c68.6,0,124.2-66.7,124.2-149.1
			C393.2,422.2,337.5,355.5,268.9,355.5 M268.9,605.9c-31.9,0-57.9-45.4-57.9-101.4c0-55.9,25.9-101.3,57.9-101.3
			c31.9,0,57.8,45.4,57.8,101.3C326.7,560.5,300.8,605.9,268.9,605.9"/>
		<path class="st3" d="M431.4,315.5c-17.4-0.1-23.5,14.3-22.4,29.1v190.5c0.5,17.9,9.4,28.9,29.5,29.2l105,0.1
			c16.6,0.3,25.7-3.5,27.2-17.2v-33c-0.2-15.3-15.7-15.2-26.3-14.9h-43.2c-17.1-0.2-21.1-3-21.8-19.9l0.2-135.3
			c0.3-15.8-5.2-28.4-22.6-28.5L431.4,315.5z"/>
		<g>
			<path class="st6" d="M500,111.1c103.9,0,201.6,40.5,275,113.9s113.9,171.1,113.9,275S848.5,701.5,775,775S603.9,888.9,500,888.9
				S298.4,848.4,225,775c-73.4-73.5-113.9-171.1-113.9-275S151.5,298.4,225,225C298.4,151.6,396.1,111.1,500,111.1 M500,100
				c-106.9,0-207.3,41.6-282.9,117.2C141.6,292.7,100,393.2,100,500.1c0,106.8,41.6,207.3,117.1,282.8
				c75.6,75.6,176,117.2,282.9,117.2c106.8,0,207.3-41.6,282.9-117.2c75.5-75.6,117.1-176,117.1-282.8
				c0-106.9-41.6-207.3-117.1-282.9C707.3,141.6,606.9,100,500,100L500,100z"/>
		</g>
	</g>
</g>
</svg>
